<?xml version="1.0" standalone="no"?>
<!DOCTYPE svg PUBLIC "-//W3C//DTD SVG 20010904//EN"
 "http://www.w3.org/TR/2001/REC-SVG-20010904/DTD/svg10.dtd">
<svg version="1.0" xmlns="http://www.w3.org/2000/svg"
 width="707.000000pt" height="707.000000pt" viewBox="0 0 707.000000 707.000000"
 preserveAspectRatio="xMidYMid meet">
<metadata>
Created by potrace 1.11, written by Peter Selinger 2001-2013
</metadata>
<g transform="translate(0.000000,707.000000) scale(0.100000,-0.100000)"
fill="#000000" stroke="none">
<path d="M4862 6950 c-66 -10 -102 -40 -102 -86 0 -85 23 -94 248 -94 188 0
338 -15 487 -50 581 -134 1077 -517 1336 -1032 94 -188 165 -411 189 -599 10
-81 22 -123 39 -134 8 -4 11 98 11 338 l0 345 -63 123 c-276 546 -767 943
-1382 1118 -224 64 -582 97 -763 71z"/>
<path d="M4865 6326 c-31 -13 -55 -51 -55 -86 0 -10 11 -32 24 -47 l24 -28
174 -7 c283 -10 430 -47 649 -159 369 -189 629 -539 698 -939 24 -132 33 -155
71 -175 40 -21 83 -12 110 22 27 35 26 110 -4 245 -64 280 -179 494 -381 707
-199 210 -458 361 -748 436 -169 44 -492 62 -562 31z"/>
<path d="M3063 6050 c-60 -12 -185 -67 -234 -102 -23 -16 -170 -146 -328 -287
-157 -141 -412 -369 -566 -506 -154 -137 -392 -351 -530 -474 -137 -124 -306
-275 -375 -337 -69 -61 -220 -197 -336 -300 -116 -104 -266 -238 -335 -299
-287 -254 -319 -294 -319 -408 0 -106 50 -185 154 -240 37 -19 61 -22 226 -27
l185 -5 5 -1305 5 -1305 30 -42 c17 -23 48 -52 70 -65 l40 -23 2455 0 2455 0
40 26 c22 15 48 36 58 47 47 52 46 20 46 1362 1 696 1 1275 1 1288 0 22 0 22
168 22 198 0 237 10 311 76 35 32 56 61 70 100 25 65 26 94 6 161 -21 72 -72
135 -205 253 -63 57 -149 133 -190 170 -76 68 -372 333 -445 399 -22 20 -120
107 -218 195 l-177 158 -80 -72 c-44 -40 -80 -73 -80 -74 0 -2 118 -108 262
-237 299 -267 664 -594 723 -648 22 -20 59 -53 83 -73 55 -46 92 -96 92 -123
0 -12 -11 -34 -25 -49 l-24 -26 -256 0 -255 0 0 -1340 c0 -968 -3 -1346 -11
-1364 -6 -13 -21 -27 -33 -30 -11 -3 -1059 -6 -2328 -6 -2295 0 -2308 0 -2328
20 -20 20 -20 33 -20 1370 l0 1350 -254 0 c-241 0 -255 1 -280 21 -19 15 -26
30 -26 54 0 37 8 45 435 425 300 267 409 365 619 554 116 104 245 219 286 256
41 37 168 149 281 251 113 101 241 216 284 254 44 39 129 115 190 170 275 249
546 489 582 515 93 68 230 95 342 66 88 -22 144 -55 237 -138 43 -39 115 -104
159 -143 44 -40 193 -173 331 -296 138 -123 326 -291 418 -374 92 -82 172
-151 177 -153 9 -4 159 127 159 139 0 3 -75 73 -167 155 -93 82 -188 167 -213
190 -53 48 -430 387 -545 488 -44 39 -100 89 -125 112 -134 121 -244 187 -365
219 -64 16 -239 19 -312 5z"/>
<path d="M4904 5752 c-49 -41 -54 -101 -13 -138 17 -15 44 -20 142 -25 150 -7
235 -28 355 -86 121 -59 245 -173 314 -289 48 -82 98 -218 98 -267 0 -105 119
-164 174 -85 34 49 7 211 -59 355 -157 339 -500 554 -884 553 -86 -1 -110 -4
-127 -18z"/>
<path d="M5095 5149 c-43 -12 -105 -67 -121 -105 -17 -40 -18 -127 -3 -157 19
-37 72 -88 108 -103 76 -32 174 -10 233 53 34 36 48 73 48 129 0 132 -132 223
-265 183z"/>
<path d="M1830 4398 c-76 -21 -130 -85 -130 -153 0 -89 54 -131 235 -180 73
-21 85 -30 85 -66 0 -34 -23 -49 -77 -49 -45 0 -79 26 -89 66 l-7 26 -81 -7
c-44 -4 -83 -8 -85 -10 -2 -2 0 -20 3 -40 9 -47 66 -110 119 -130 53 -20 198
-24 255 -7 111 34 172 151 127 246 -19 39 -83 82 -152 101 -29 8 -78 22 -109
30 -51 15 -55 18 -52 43 2 23 8 28 37 30 52 5 79 -5 95 -37 15 -28 15 -28 93
-23 43 2 80 6 81 8 2 1 1 17 -3 34 -11 50 -60 98 -118 115 -56 17 -173 18
-227 3z"/>
<path d="M2290 4120 l0 -281 73 3 72 3 5 185 c6 209 -2 214 68 -45 l38 -140
58 -3 c67 -4 81 5 91 55 9 49 73 284 83 303 4 8 9 -68 12 -170 l5 -185 70 0
70 0 3 278 2 277 -119 0 -120 0 -15 -52 c-8 -29 -27 -99 -42 -156 -15 -56 -30
-100 -33 -97 -3 4 -24 72 -46 153 l-41 147 -117 3 -117 3 0 -281z"/>
<path d="M3157 4278 c-26 -68 -73 -191 -106 -273 -33 -83 -56 -154 -52 -158 4
-4 46 -7 92 -5 l83 3 11 38 c6 21 17 42 25 47 20 13 156 13 180 0 10 -5 21
-22 25 -37 12 -48 22 -53 110 -53 45 0 84 2 87 5 3 3 -43 128 -101 278 l-107
272 -100 3 -100 3 -47 -123z m177 -128 c14 -43 26 -82 26 -85 0 -3 -25 -5 -55
-5 -33 0 -55 4 -55 11 0 23 43 159 51 159 4 0 19 -36 33 -80z"/>
<path d="M3680 4120 l0 -281 88 3 87 3 3 113 c1 61 7 112 12 112 32 0 61 -31
110 -118 30 -53 59 -100 64 -104 6 -4 53 -8 105 -8 108 0 105 -11 35 117 -24
45 -58 93 -74 107 l-31 25 30 16 c17 8 43 32 58 52 36 47 39 126 7 169 -50 67
-55 69 -285 72 l-209 4 0 -282z m299 159 c17 -6 31 -15 31 -19 0 -5 3 -15 6
-23 3 -9 -4 -25 -15 -36 -17 -17 -34 -21 -81 -21 l-60 0 0 48 c0 27 3 52 7 55
10 11 77 8 112 -4z"/>
<path d="M4252 4333 l3 -68 87 -3 88 -3 2 -207 3 -207 87 -3 88 -3 2 208 3
208 88 3 87 3 0 69 0 70 -270 0 -271 0 3 -67z"/>
<path d="M2817 3310 c-60 -11 -129 -50 -163 -95 -85 -111 -69 -315 31 -403 98
-86 288 -95 402 -19 122 81 149 301 53 423 -43 53 -93 81 -170 93 -73 12 -85
12 -153 1z m149 -148 c44 -35 61 -110 44 -187 -19 -86 -77 -121 -155 -95 -88
29 -105 227 -24 284 31 21 108 21 135 -2z"/>
<path d="M1950 3030 l0 -280 90 0 90 0 0 110 c0 128 -4 124 116 118 l69 -3 5
-110 5 -110 90 0 90 0 2 260 c0 143 -1 268 -4 278 -4 16 -15 17 -91 15 l-87
-3 -5 -95 -5 -95 -90 0 -90 0 -3 98 -3 97 -89 0 -90 0 0 -280z"/>
<path d="M3290 3030 l0 -281 73 3 72 3 5 185 5 185 34 -125 c18 -69 42 -152
51 -185 l18 -60 65 -3 66 -3 11 43 c6 24 15 57 20 73 5 17 21 75 35 129 14 55
30 106 35 115 6 10 9 -51 10 -172 l0 -188 73 3 72 3 0 275 0 275 -112 3 c-131
3 -118 15 -157 -138 -35 -136 -46 -170 -55 -170 -4 0 -12 24 -19 53 -6 28 -24
97 -40 152 l-27 100 -118 3 -117 3 0 -281z"/>
<path d="M4050 3030 l0 -280 243 2 242 3 0 60 0 60 -150 5 -150 5 -3 47 c-4
58 -5 57 158 61 l115 2 0 50 0 50 -135 5 -135 5 0 40 0 40 148 3 148 3 -3 57
-3 57 -237 3 -238 2 0 -280z"/>
<path d="M1551 2202 c-64 -25 -103 -77 -104 -140 -1 -88 59 -138 223 -181 74
-19 100 -38 100 -72 0 -10 -10 -25 -22 -33 -49 -35 -134 -8 -145 46 l-6 30
-83 -4 c-46 -2 -86 -7 -89 -10 -13 -13 30 -100 65 -132 48 -43 93 -56 195 -56
111 0 151 14 207 69 37 37 47 56 53 92 17 112 -58 179 -249 220 -85 18 -107
45 -61 75 38 25 91 11 111 -28 l16 -30 79 4 c43 3 82 7 85 10 7 8 -23 78 -44
102 -9 10 -35 27 -57 37 -54 25 -211 25 -274 1z"/>
<path d="M1986 2212 c-2 -4 45 -78 105 -165 l109 -157 0 -115 0 -115 90 0 90
0 0 115 0 115 41 57 c130 185 178 257 173 264 -3 5 -45 9 -94 9 l-88 0 -58
-90 c-31 -49 -60 -90 -65 -90 -4 0 -27 32 -50 71 -62 107 -65 109 -163 109
-47 0 -87 -3 -90 -8z"/>
<path d="M2731 2207 c-76 -24 -130 -111 -111 -178 22 -74 63 -104 197 -140 95
-25 123 -42 123 -73 0 -60 -90 -77 -141 -27 -16 16 -29 37 -29 47 0 15 -9 16
-81 11 -44 -3 -83 -8 -86 -11 -14 -13 11 -81 43 -116 50 -56 110 -73 233 -68
83 3 103 7 143 31 106 62 128 186 47 265 -33 32 -107 62 -202 83 -61 13 -81
27 -75 56 9 47 102 37 129 -14 13 -24 16 -25 91 -21 43 3 81 8 84 11 9 9 -15
68 -40 96 -39 44 -92 61 -196 60 -52 -1 -110 -6 -129 -12z"/>
<path d="M3174 2207 c-3 -8 -4 -41 -2 -73 l3 -59 88 -3 87 -3 0 -204 0 -205
90 0 90 0 0 205 0 204 88 3 87 3 0 70 0 70 -263 3 c-216 2 -263 0 -268 -11z"/>
<path d="M3797 2213 c-4 -3 -7 -129 -7 -280 l0 -273 240 0 240 0 0 65 0 65
-150 0 -150 0 0 50 0 50 135 0 135 0 0 60 0 60 -135 0 -135 0 0 40 c0 25 5 40
13 41 6 0 69 0 140 -1 70 -1 131 1 135 4 4 2 5 31 4 65 l-4 61 -227 0 c-125 0
-231 -3 -234 -7z"/>
<path d="M4375 2211 c-6 -6 -9 -119 -7 -280 l3 -271 69 0 70 0 0 180 c0 99 4
180 8 180 5 0 23 -55 41 -122 18 -68 40 -149 49 -180 l15 -58 68 0 c67 0 69 1
75 28 3 15 14 56 25 92 10 36 28 102 40 148 12 45 25 85 30 88 5 3 9 -73 9
-176 l0 -181 71 3 70 3 0 270 c-1 149 -1 273 -1 278 0 10 -202 9 -218 -2 -8
-4 -31 -72 -52 -150 -22 -78 -42 -147 -46 -153 -4 -6 -20 38 -36 98 -16 60
-36 133 -44 162 l-15 52 -107 0 c-60 0 -112 -4 -117 -9z"/>
<path d="M4442 1425 c-15 -11 -27 -13 -47 -5 -55 21 -95 4 -95 -39 0 -15 37
-14 42 1 3 9 16 8 51 -2 43 -11 49 -11 67 5 36 32 20 66 -18 40z"/>
<path d="M2686 1345 c-21 -7 -52 -26 -68 -42 -98 -93 -66 -286 55 -332 36 -14
118 -14 154 0 38 14 82 57 99 98 18 42 18 132 0 174 -25 62 -113 118 -181 117
-11 -1 -37 -7 -59 -15z m135 -58 c44 -29 62 -68 62 -132 0 -51 -19 -101 -47
-125 -9 -7 -37 -16 -62 -21 -58 -11 -106 8 -134 53 -28 46 -28 140 0 186 37
61 122 79 181 39z"/>
<path d="M3960 1348 c-82 -23 -129 -91 -130 -184 0 -92 37 -162 102 -191 22
-10 38 -24 38 -34 0 -9 9 -19 21 -22 30 -8 14 -27 -22 -27 -24 0 -30 -4 -27
-17 4 -24 49 -28 87 -8 37 18 40 47 9 69 -23 16 -21 18 34 30 36 8 83 49 98
86 14 34 14 35 -17 44 -19 6 -25 1 -37 -28 -17 -42 -44 -58 -100 -58 -52 -1
-82 14 -106 55 -25 41 -27 135 -3 184 40 85 186 79 215 -8 5 -16 48 -2 48 16
0 26 -59 81 -98 93 -46 14 -64 14 -112 0z"/>
<path d="M4765 1355 c-5 -2 -22 -6 -37 -9 -77 -17 -135 -116 -125 -213 11
-108 83 -173 191 -173 116 0 186 73 186 193 0 30 -5 68 -11 84 -28 75 -139
140 -204 118z m116 -81 c60 -57 63 -172 6 -229 -44 -43 -94 -52 -152 -26 -54
24 -75 64 -75 143 0 96 58 153 148 144 30 -3 52 -12 73 -32z"/>
<path d="M1569 1323 c-6 -16 -39 -101 -75 -189 -35 -89 -64 -165 -64 -169 0
-3 12 -5 27 -3 23 2 32 12 50 58 l22 55 83 0 83 0 22 -55 c19 -48 25 -55 52
-58 17 -2 31 1 31 6 0 5 -17 49 -39 98 -21 49 -58 133 -81 187 -40 91 -44 97
-71 97 -23 0 -32 -6 -40 -27z m75 -115 c14 -39 24 -74 21 -76 -5 -5 -106 -4
-112 1 -4 5 52 147 58 147 3 0 18 -32 33 -72z"/>
<path d="M1844 1335 c-4 -9 -4 -75 -2 -148 5 -147 17 -186 68 -212 44 -23 147
-20 188 5 53 33 63 70 60 228 l-3 137 -25 0 -25 0 -5 -145 c-3 -80 -9 -153
-14 -162 -4 -9 -28 -21 -54 -27 -58 -12 -107 6 -122 44 -6 15 -10 87 -10 161
l0 134 -25 0 c-14 0 -28 -7 -31 -15z"/>
<path d="M2214 1335 c-10 -26 7 -35 67 -35 40 0 59 -4 59 -12 1 -7 2 -83 3
-168 l2 -155 28 -3 27 -3 0 170 0 171 65 0 c63 0 65 1 65 25 l0 25 -155 0
c-127 0 -157 -3 -161 -15z"/>
<path d="M3010 1338 c-2 -39 -3 -272 -1 -320 1 -55 2 -58 26 -58 l25 0 0 147
c0 84 4 143 9 138 5 -6 30 -72 56 -148 46 -131 49 -138 73 -135 23 3 31 16 75
141 27 76 52 135 54 133 3 -3 7 -65 9 -138 l3 -133 26 -3 25 -3 0 196 0 196
-37 -3 -38 -3 -55 -152 c-30 -83 -58 -150 -61 -147 -4 2 -30 71 -59 154 l-53
150 -38 0 c-24 0 -39 -5 -39 -12z"/>
<path d="M3573 1333 c-3 -10 -37 -96 -75 -191 -37 -95 -68 -174 -68 -177 0 -3
13 -5 29 -5 26 0 30 6 50 60 l22 60 80 0 80 0 26 -60 c23 -53 29 -60 54 -60
16 0 29 3 29 8 0 4 -36 90 -79 192 -77 179 -81 185 -110 188 -23 2 -33 -2 -38
-15z m71 -124 c15 -40 24 -74 21 -77 -5 -5 -106 -4 -112 1 -4 5 52 147 58 147
4 0 19 -32 33 -71z"/>
<path d="M4350 1330 c-21 -38 -140 -343 -140 -357 0 -10 9 -13 26 -11 21 2 30
13 47 58 l22 55 80 0 80 0 27 -57 c23 -48 32 -58 53 -58 14 0 25 4 25 9 0 9
-87 221 -133 324 -22 47 -30 57 -51 57 -15 0 -30 -8 -36 -20z m70 -129 l27
-69 -26 -5 c-22 -3 -51 -3 -93 2 -4 1 7 35 24 76 17 42 33 73 36 70 3 -3 18
-36 32 -74z"/>
</g>
</svg>
